<svg width="74" height="74" viewBox="0 0 74 74" fill="none" xmlns="http://www.w3.org/2000/svg">
<path fill-rule="evenodd" clip-rule="evenodd" d="M64.64 9.92004H32.72V19.04H14.48V37.28H9.91995V64.64H14.48V41.84H32.72V64.64H37.28V14.48H60.08V64.64H64.64V9.92004ZM19.04 23.6H32.72V37.28H19.04V23.6ZM19.04 46.4V50.96H28.16V46.4H19.04ZM23.6 28.16H28.16V32.72H23.6V28.16ZM46.4 28.16H41.84V32.72H46.4V28.16ZM41.84 46.4H46.4V50.96H41.84V46.4ZM46.4 55.52H41.84V60.08H46.4V55.52ZM41.84 19.04H46.4V23.6H41.84V19.04ZM46.4 37.28H41.84V41.84H46.4V37.28ZM50.96 19.04H55.52V23.6H50.96V19.04ZM55.52 37.28H50.96V41.84H55.52V37.28ZM50.96 28.16H55.52V32.72H50.96V28.16ZM55.52 46.4H50.96V50.96H55.52V46.4ZM50.96 55.52H55.52V60.08H50.96V55.52ZM28.16 60.08V55.52H19.04V60.08H28.16Z" fill="#FF0000"/>
</svg>
