<svg width="61" height="61" viewBox="0 0 61 61" fill="none" xmlns="http://www.w3.org/2000/svg">
<path fill-rule="evenodd" clip-rule="evenodd" d="M21.748 0.760071C22.904 0.760071 23.841 1.69716 23.841 2.85309V16.8066C23.841 17.9625 22.904 18.8996 21.748 18.8996C20.5921 18.8996 19.655 17.9625 19.655 16.8066V2.85309C19.655 1.69716 20.5921 0.760071 21.748 0.760071Z" fill="#FF0000"/>
<path fill-rule="evenodd" clip-rule="evenodd" d="M0.12001 22.3878C0.12001 21.2318 1.0571 20.2947 2.21303 20.2947H13.3758C14.5318 20.2947 15.4689 21.2318 15.4689 22.3878C15.4689 23.5437 14.5318 24.4808 13.3758 24.4808H2.21303C1.0571 24.4808 0.12001 23.5437 0.12001 22.3878Z" fill="#FF0000"/>
<path fill-rule="evenodd" clip-rule="evenodd" d="M0.12001 36.3416C0.12001 35.1857 1.0571 34.2485 2.21303 34.2485H32.9107C34.0666 34.2485 35.0037 35.1857 35.0037 36.3416C35.0037 37.4975 34.0666 38.4346 32.9107 38.4346H2.21303C1.0571 38.4346 0.12001 37.4975 0.12001 36.3416Z" fill="#FF0000"/>
<path fill-rule="evenodd" clip-rule="evenodd" d="M24.5386 34.2485C25.6945 34.2485 26.6316 35.1857 26.6316 36.3416V58.6671C26.6316 59.8231 25.6945 60.7602 24.5386 60.7602C23.3826 60.7602 22.4456 59.8231 22.4456 58.6671V36.3416C22.4456 35.1857 23.3826 34.2485 24.5386 34.2485Z" fill="#FF0000"/>
<path fill-rule="evenodd" clip-rule="evenodd" d="M0.12001 2.85309C0.12001 1.69716 1.0571 0.760071 2.21303 0.760071H58.027C59.1829 0.760071 60.12 1.69716 60.12 2.85309V44.7136C60.12 45.8695 59.1829 46.8066 58.027 46.8066C56.8711 46.8066 55.934 45.8695 55.934 44.7136V4.94612H4.30606V56.574H55.934V55.8763C55.934 54.7204 56.8711 53.7833 58.027 53.7833C59.1829 53.7833 60.12 54.7204 60.12 55.8763V58.667C60.12 59.823 59.1829 60.7601 58.027 60.7601H2.21303C1.0571 60.7601 0.12001 59.823 0.12001 58.667V2.85309Z" fill="#FF0000"/>
<path fill-rule="evenodd" clip-rule="evenodd" d="M36.3992 11.2253C36.3992 10.0694 37.3363 9.13232 38.4923 9.13232H49.6551C50.811 9.13232 51.7481 10.0694 51.7481 11.2253V22.3881C51.7481 23.5441 50.811 24.4812 49.6551 24.4812H38.4923C37.3363 24.4812 36.3992 23.5441 36.3992 22.3881V11.2253ZM40.5853 13.3184V20.2951H47.562V13.3184H40.5853Z" fill="#FF0000"/>
<path fill-rule="evenodd" clip-rule="evenodd" d="M46.8642 37.0393C48.0201 37.0393 48.9572 37.9764 48.9572 39.1323V58.6672C48.9572 59.8231 48.0201 60.7602 46.8642 60.7602C45.7083 60.7602 44.7712 59.8231 44.7712 58.6672V39.1323C44.7712 37.9764 45.7083 37.0393 46.8642 37.0393Z" fill="#FF0000"/>
</svg>
